<svg xmlns="http://www.w3.org/2000/svg" viewBox="0 0 167.48 140.55"><defs><style>.cls-1{fill:#fff;}</style></defs><title>Asset 1</title><g id="Layer_2" data-name="Layer 2"><g id="Layer_1-2" data-name="Layer 1"><path class="cls-1" d="M167.48,0,156.33,1.28,145.19,2.56C124.36,5,108,12,96.63,23.34A58.59,58.59,0,0,0,89,32.79V0L77.8,1.28,66.66,2.56C45.82,5,29.48,12,18.09,23.34,6.09,35.35,0,51.51,0,71.38v69.17H167.48V0Z"/><path d="M147.48,21.43V46q-23.67.81-24.59,24.36h24.59v49.17H98.53V70.38q0-43.32,48.95-48.95M69,21.43V46q-23.69.81-24.59,24.36H69v49.17H20V70.38q0-43.32,49-48.95m88.53-11.21L146.33,11.5c-18.53,2.13-32.88,8.16-42.63,17.91-10.07,10.07-15.17,23.85-15.17,41v59.17h68.95V60.38H135.89c2.33-2.87,6.15-4.17,11.93-4.37l9.66-.32V10.22ZM79,10.22,67.8,11.5c-18.53,2.13-32.88,8.16-42.63,17.91C15.1,39.48,10,53.26,10,70.38v59.17H79V60.38H57.35c2.34-2.87,6.16-4.17,11.93-4.37L79,55.69V10.22Z"/></g></g></svg>